<svg width="30" height="30" viewBox="0 0 30 30" fill="none" xmlns="http://www.w3.org/2000/svg">
<g clip-path="url(#clip0_0_129)">
<path d="M21.875 30C21.7438 30 21.6125 29.9587 21.5013 29.875C21.185 29.64 13.75 24.0375 13.75 19.5387C13.75 17.0362 15.785 15 18.2875 15C19.7125 15 21.0288 15.6637 21.875 16.7537C22.72 15.6637 24.0363 15 25.4625 15C27.965 15 30 17.0362 30 19.5387C30 24.0387 22.565 29.64 22.2488 29.8762C22.1375 29.9587 22.0063 30 21.875 30ZM18.2875 16.25C16.475 16.25 15 17.7262 15 19.5387C15 22.575 19.6538 26.8488 21.875 28.5875C24.095 26.8475 28.75 22.5712 28.75 19.5387C28.75 17.7262 27.275 16.25 25.4625 16.25C24.1513 16.25 22.9688 17.0237 22.4488 18.2212C22.2513 18.6775 21.5 18.6775 21.3025 18.2212C20.7813 17.0237 19.5988 16.25 18.2875 16.25Z" fill="black"/>
<path d="M11.875 25H6.25C4.87125 25 3.75 23.8787 3.75 22.5V13.75H1.25C0.54875 13.75 0 13.2012 0 12.5C0 12.1487 0.1525 11.8012 0.4075 11.5725L12.6988 0.167485C12.9388 -0.0550147 13.31 -0.0550147 13.5487 0.167485L17.5 3.82999V1.87499C17.5 1.52999 17.78 1.24999 18.125 1.24999H21.875C22.22 1.24999 22.5 1.52999 22.5 1.87499V8.46499L25.85 11.5787C26.1025 11.8137 26.1175 12.2087 25.8825 12.4625C25.6475 12.715 25.2525 12.7312 24.9988 12.4937L21.4488 9.19374C21.3225 9.07749 21.25 8.91124 21.25 8.73749V2.49999H18.75V5.26249C18.75 5.51124 18.6025 5.73624 18.375 5.83499C18.1462 5.93374 17.8812 5.88874 17.7 5.71999L13.125 1.47749L1.25 12.495L4.375 12.5C4.72 12.5 5 12.78 5 13.125V22.5C5 23.19 5.56125 23.75 6.25 23.75H11.875C12.22 23.75 12.5 24.03 12.5 24.375C12.5 24.72 12.22 25 11.875 25Z" fill="black"/>
</g>
<defs>
<clipPath id="clip0_0_129">
<rect width="30" height="30" fill="white"/>
</clipPath>
</defs>
</svg>
