<svg width="10" height="10" viewBox="0 0 10 10" fill="none" xmlns="http://www.w3.org/2000/svg">
<g clip-path="url(#clip0_0_206)">
<path d="M9.97387 3.83592C9.90841 3.63343 9.72881 3.48962 9.51633 3.47047L6.63005 3.20839L5.48874 0.537041C5.40459 0.341266 5.21293 0.214539 4.99999 0.214539C4.78705 0.214539 4.59539 0.341266 4.51124 0.537499L3.36993 3.20839L0.483196 3.47047C0.271093 3.49007 0.0919506 3.63343 0.0261072 3.83592C-0.0397362 4.03841 0.0210717 4.26051 0.181522 4.40051L2.3632 6.31386L1.71988 9.14772C1.6728 9.35608 1.75368 9.57147 1.92656 9.69644C2.01949 9.76358 2.12821 9.79776 2.23785 9.79776C2.33238 9.79776 2.42615 9.77228 2.5103 9.72192L4.99999 8.23392L7.48876 9.72192C7.67088 9.83148 7.90045 9.82149 8.07296 9.69644C8.24592 9.57109 8.32672 9.35563 8.27964 9.14772L7.63632 6.31386L9.818 4.40089C9.97845 4.26051 10.0397 4.03879 9.97387 3.83592Z" fill="#FFC107"/>
</g>
<defs>
<clipPath id="clip0_0_206">
<rect width="10" height="10" fill="white"/>
</clipPath>
</defs>
</svg>
